<svg width="24" height="24" viewBox="0 0 24 24" fill="none" xmlns="http://www.w3.org/2000/svg">
<rect x="23.4375" y="23.4375" width="22.875" height="22.875" rx="11.4375" transform="rotate(-180 23.4375 23.4375)" fill="white" fill-opacity="0.16"/>
<rect x="23.4375" y="23.4375" width="22.875" height="22.875" rx="11.4375" transform="rotate(-180 23.4375 23.4375)" stroke="white" stroke-width="1.125"/>
<path fill-rule="evenodd" clip-rule="evenodd" d="M16.1655 8.38083C16.4119 8.10721 16.3898 7.68568 16.1162 7.43931C15.8426 7.19294 15.421 7.21503 15.1747 7.48865L11.9089 11.1157L8.82637 7.68148C8.58042 7.40748 8.15893 7.38473 7.88493 7.63068C7.61093 7.87662 7.58818 8.29812 7.83413 8.57211L11.0117 12.1121L8.03727 15.4155C7.7909 15.6891 7.81299 16.1107 8.08661 16.357C8.36023 16.6034 8.78176 16.5813 9.02813 16.3077L11.9073 13.11L14.9592 16.51C15.2052 16.784 15.6267 16.8068 15.9007 16.5608C16.1747 16.3149 16.1974 15.8934 15.9515 15.6194L12.8046 12.1135L16.1655 8.38083Z" fill="white"/>
</svg>
