<svg width="20" height="18" viewBox="0 0 20 18" fill="none" xmlns="http://www.w3.org/2000/svg">
<path d="M1.11111 14.4444H10.1111C10.5556 16.3333 12.3333 17.7778 14.4444 17.7778C16.5556 17.7778 18.2222 16.3333 18.7778 14.4444H18.8889C19.5556 14.4444 20 14 20 13.3333C20 12.6667 19.5556 12.2222 18.8889 12.2222H18.7778C18.3333 10.3333 16.5556 8.88889 14.4444 8.88889C12.3333 8.88889 10.6667 10.3333 10.1111 12.2222H1.11111C0.444444 12.2222 0 12.6667 0 13.3333C0 14 0.444444 14.4444 1.11111 14.4444ZM14.4444 11.1111C15.6667 11.1111 16.6667 12.1111 16.6667 13.3333C16.6667 14.5556 15.6667 15.5556 14.4444 15.5556C13.2222 15.5556 12.2222 14.5556 12.2222 13.3333C12.2222 12.1111 13.2222 11.1111 14.4444 11.1111ZM1.11111 5.55556H1.22222C1.66667 7.44444 3.44444 8.88889 5.55556 8.88889C7.66667 8.88889 9.33333 7.44444 9.88889 5.55556H18.8889C19.5556 5.55556 20 5.11111 20 4.44444C20 3.77778 19.5556 3.33333 18.8889 3.33333H9.88889C9.44444 1.44444 7.66667 0 5.55556 0C3.44444 0 1.77778 1.44444 1.22222 3.33333H1.11111C0.444444 3.33333 0 3.77778 0 4.44444C0 5.11111 0.444444 5.55556 1.11111 5.55556ZM5.55556 2.22222C6.77778 2.22222 7.77778 3.22222 7.77778 4.44444C7.77778 5.66667 6.77778 6.66667 5.55556 6.66667C4.33333 6.66667 3.33333 5.66667 3.33333 4.44444C3.33333 3.22222 4.33333 2.22222 5.55556 2.22222Z" fill="white"/>
</svg>
