<svg width="18" height="19" viewBox="0 0 18 19" fill="none" xmlns="http://www.w3.org/2000/svg">
<path d="M13.2019 10.8734C13.021 10.783 11.8455 10.2405 11.6647 10.1501C11.4838 10.0596 11.303 10.0596 11.1221 10.2405C10.9413 10.4213 10.5796 10.9639 10.3987 11.1447C10.3083 11.3256 10.1275 11.3256 9.94661 11.2351C9.31364 10.9639 8.68067 10.6022 8.13813 10.1501C7.68601 9.69794 7.2339 9.1554 6.8722 8.61286C6.78178 8.43201 6.8722 8.25116 6.96262 8.16074C7.05305 8.07031 7.14347 7.88947 7.32432 7.79904C7.41474 7.70862 7.50517 7.52777 7.50517 7.43735C7.59559 7.34692 7.59559 7.16608 7.50517 7.07565C7.41474 6.98523 6.96262 5.90015 6.78178 5.44803C6.69135 4.81506 6.51051 4.81506 6.32966 4.81506H5.87754C5.69669 4.81506 5.42542 4.99591 5.335 5.08633C4.79246 5.62888 4.52118 6.26184 4.52118 6.98523C4.61161 7.79904 4.88288 8.61286 5.42542 9.33625C6.42008 10.783 7.68601 11.9585 9.22322 12.6819C9.67534 12.8628 10.037 13.0436 10.4891 13.134C10.9413 13.3149 11.3934 13.3149 11.9359 13.2245C12.5689 13.134 13.1114 12.6819 13.4731 12.1394C13.654 11.7777 13.654 11.416 13.5636 11.0543L13.2019 10.8734ZM15.4625 2.64489C11.9359 -0.881631 6.23924 -0.881631 2.71271 2.64489C-0.180847 5.53845 -0.72339 9.96921 1.26593 13.4957L0 18.1073L4.79246 16.8414C6.14881 17.5648 7.59559 17.9265 9.04237 17.9265C14.0157 17.9265 17.9943 13.9479 17.9943 8.97455C18.0847 6.62354 17.0901 4.36294 15.4625 2.64489ZM13.021 15.3042C11.8455 16.0276 10.4891 16.4797 9.04237 16.4797C7.68601 16.4797 6.42008 16.118 5.24457 15.4851L4.9733 15.3042L2.17017 16.0276L2.89356 13.3149L2.71271 13.0436C0.542542 9.42667 1.62763 4.90549 5.15415 2.64489C8.68067 0.384301 13.2019 1.55981 15.372 4.99591C17.5422 8.52243 16.5475 13.134 13.021 15.3042Z" fill="white"/>
</svg>
