<svg width="16" height="21" viewBox="0 0 16 21" fill="none" xmlns="http://www.w3.org/2000/svg">
<path d="M8.27351 1.19633C12.0836 1.21042 15.2633 4.59135 15.25 8.87779V8.88013V8.96863C15.1995 11.7371 13.7672 14.3584 11.9265 16.4658C10.8758 17.6487 9.70383 18.6948 8.43417 19.5837C8.40495 19.6042 8.37722 19.6267 8.3512 19.6511C8.31286 19.6871 8.27698 19.6963 8.24995 19.6963C8.22293 19.6963 8.18705 19.6871 8.14871 19.6511C8.1234 19.6274 8.09646 19.6054 8.0681 19.5854C6.1755 18.2493 4.5113 16.5603 3.15341 14.5937L3.15344 14.5937L3.149 14.5874C1.9847 12.9375 1.31842 10.9288 1.25 8.8395V8.82421C1.264 4.53856 4.46423 1.18234 8.27351 1.19633ZM8.27351 1.19633L8.27629 0.446338L8.27351 1.19633Z" stroke="white" stroke-width="1.5" stroke-linecap="round" stroke-linejoin="round"/>
<path d="M8.27351 1.19633C12.0836 1.21042 15.2633 4.59135 15.25 8.87779V8.88013V8.96863C15.1995 11.7371 13.7672 14.3584 11.9265 16.4658C10.8758 17.6487 9.70383 18.6948 8.43417 19.5837C8.40495 19.6042 8.37722 19.6267 8.3512 19.6511C8.31286 19.6871 8.27698 19.6963 8.24995 19.6963C8.22293 19.6963 8.18705 19.6871 8.14871 19.6511C8.1234 19.6274 8.09646 19.6054 8.0681 19.5854C6.1755 18.2493 4.5113 16.5603 3.15341 14.5937L3.15344 14.5937L3.149 14.5874C1.9847 12.9375 1.31842 10.9288 1.25 8.8395V8.82421C1.264 4.53856 4.46423 1.18234 8.27351 1.19633ZM8.27351 1.19633L8.27629 0.446338L8.27351 1.19633Z" stroke="white" stroke-width="1.5" stroke-linecap="round" stroke-linejoin="round"/>
<path d="M8.30148 11.2397C9.87944 11.2397 11.1586 9.96049 11.1586 8.38253C11.1586 6.80458 9.87944 5.52539 8.30148 5.52539C6.72352 5.52539 5.44434 6.80458 5.44434 8.38253C5.44434 9.96049 6.72352 11.2397 8.30148 11.2397Z" stroke="white" stroke-width="1.5" stroke-linecap="round" stroke-linejoin="round"/>
</svg>
