<svg width="18" height="18" viewBox="0 0 18 18" fill="none" xmlns="http://www.w3.org/2000/svg">
<path d="M14.2735 17.9098C13.511 17.9098 12.4399 17.634 10.836 16.7379C8.88562 15.6442 7.37702 14.6344 5.43718 12.6996C3.56687 10.8305 2.65671 9.62034 1.38288 7.30237C-0.0561797 4.68518 0.189133 3.31331 0.463352 2.72698C0.789914 2.0262 1.27195 1.60706 1.89499 1.19104C2.24888 0.959183 2.62338 0.760426 3.01374 0.597294C3.0528 0.580497 3.08913 0.564481 3.12155 0.550028C3.31491 0.462919 3.60788 0.331278 3.97898 0.471903C4.22663 0.564872 4.44773 0.755106 4.79382 1.0969C5.50359 1.7969 6.47351 3.35589 6.83132 4.12151C7.07155 4.63753 7.23054 4.97815 7.23093 5.36018C7.23093 5.80745 7.00593 6.15237 6.73288 6.52464C6.68171 6.59456 6.63093 6.66136 6.58171 6.7262C6.28444 7.11683 6.21921 7.22972 6.26218 7.43128C6.34929 7.83636 6.9989 9.04222 8.06648 10.1075C9.13406 11.1727 10.3051 11.7813 10.7118 11.868C10.9219 11.9129 11.0372 11.8449 11.4403 11.5371C11.4981 11.493 11.5575 11.4473 11.6196 11.4016C12.036 11.0918 12.3649 10.8727 12.8016 10.8727H12.804C13.1841 10.8727 13.5094 11.0375 14.0485 11.3094C14.7516 11.6641 16.3575 12.6215 17.0618 13.3321C17.4044 13.6774 17.5954 13.8977 17.6887 14.1449C17.8294 14.5172 17.6969 14.809 17.6106 15.0043C17.5962 15.0367 17.5801 15.0723 17.5634 15.1117C17.3989 15.5014 17.199 15.8751 16.9661 16.2282C16.5509 16.8492 16.1301 17.3301 15.4278 17.6571C15.0671 17.8277 14.6725 17.9141 14.2735 17.9098Z" fill="white"/>
</svg>
