<svg width="37" height="36" viewBox="0 0 37 36" fill="none" xmlns="http://www.w3.org/2000/svg">
<path d="M36.4935 15.3144L19.231 0.695287C19.0688 0.557932 18.873 0.483887 18.672 0.483887C18.4711 0.483887 18.2753 0.557932 18.1131 0.695287L0.850468 15.3144C0.428821 15.6716 0.337208 16.3564 0.645975 16.8441C0.954742 17.3318 1.54688 17.4376 1.96846 17.0806L18.672 2.93476L35.3755 17.0805C35.5373 17.2181 35.7329 17.2922 35.9337 17.292C36.225 17.292 36.5125 17.1369 36.6979 16.844C37.0067 16.3564 36.9151 15.6716 36.4935 15.3144Z" fill="#fff"/>
<path d="M31.745 15.4246C31.2294 15.4246 30.8113 15.9108 30.8113 16.5105V33.7958H23.3413V24.3604C23.3413 21.3662 21.2466 18.9303 18.6721 18.9303C16.0976 18.9303 14.0029 21.3663 14.0029 24.3604V33.7959H6.53282V16.5106C6.53282 15.9108 6.11468 15.4246 5.59905 15.4246C5.08342 15.4246 4.66528 15.9108 4.66528 16.5106V34.8819C4.66528 35.4817 5.08342 35.9679 5.59905 35.9679H14.9367C15.4277 35.9679 15.8296 35.5266 15.8668 34.9665C15.869 34.9411 15.8704 34.9133 15.8704 34.8819V24.3605C15.8704 22.5639 17.1272 21.1023 18.6721 21.1023C20.2169 21.1023 21.4737 22.5639 21.4737 24.3605V34.8819C21.4737 34.9132 21.4751 34.9404 21.4774 34.9655C21.5142 35.5261 21.9161 35.9679 22.4075 35.9679H31.7451C32.2608 35.9679 32.6789 35.4817 32.6789 34.8819V16.5106C32.6788 15.9108 32.2607 15.4246 31.745 15.4246Z" fill="#fff"/>
</svg>
