<svg width="28" height="29" viewBox="0 0 19 20" fill="none" xmlns="http://www.w3.org/2000/svg">
<path fill-rule="evenodd" clip-rule="evenodd" d="M12.1525 11.7867C13.1123 10.6405 13.6902 9.16322 13.6902 7.55098C13.6902 3.9056 10.736 0.950439 7.09191 0.950439C3.44779 0.950439 0.493652 3.9056 0.493652 7.55098C0.493652 11.1964 3.44779 14.1515 7.09191 14.1515C8.42627 14.1515 9.66813 13.7553 10.7063 13.074C10.734 13.1112 10.7648 13.1468 10.7985 13.1805L16.8348 19.2168C17.2143 19.5962 17.8295 19.5962 18.209 19.2168C18.5884 18.8373 18.5884 18.2221 18.209 17.8426L12.1727 11.8063C12.166 11.7997 12.1593 11.7932 12.1525 11.7867ZM7.09191 12.0002C4.49963 12.0002 2.49963 10.0031 2.49963 7.50024C2.49963 4.99739 4.49963 3.00024 6.99963 3.00024C9.49963 3.00024 11.4996 5.00025 11.4996 7.50025C11.4996 10.0002 9.68418 12.0002 7.09191 12.0002Z" fill="#fff"/>
</svg>
