<svg width="20" height="15" viewBox="0 0 20 15" fill="none" xmlns="http://www.w3.org/2000/svg">
<g clip-path="url(#clip0_5841_13586)">
<path d="M10.0002 6.45301L19.1287 0.588728C18.7617 0.313452 18.3161 0.163228 17.8573 0.160156H2.14301C1.68425 0.163228 1.23859 0.313452 0.871582 0.588728L10.0002 6.45301Z" fill="#FFFAFC"/>
<path d="M10.3857 7.90299L10.2643 7.96013H10.2071C10.1414 7.98951 10.0715 8.00878 10 8.01727C9.94071 8.02474 9.88072 8.02474 9.82143 8.01727H9.76429L9.64286 7.96013L0.0714285 1.77441C0.0256986 1.94694 0.00170336 2.12451 0 2.30299V12.303C0 12.8713 0.225765 13.4164 0.627628 13.8182C1.02949 14.2201 1.57454 14.4458 2.14286 14.4458H17.8571C18.4255 14.4458 18.9705 14.2201 19.3724 13.8182C19.7742 13.4164 20 12.8713 20 12.303V2.30299C19.9983 2.12451 19.9743 1.94694 19.9286 1.77441L10.3857 7.90299Z" fill="#FFFAFC"/>
</g>
<defs>
<clipPath id="clip0_5841_13586">
<rect width="20" height="14.2857" fill="white" transform="translate(0 0.160156)"/>
</clipPath>
</defs>
</svg>
