<svg width="16" height="16" viewBox="0 0 16 16" fill="none" xmlns="http://www.w3.org/2000/svg">
<path d="M12.7463 15.8747C12.0601 15.8747 11.0961 15.6265 9.65255 14.82C7.8972 13.8356 6.53947 12.9268 4.79361 11.1855C3.11033 9.50331 2.29119 8.41417 1.14474 6.32799C-0.150415 3.97252 0.070366 2.73784 0.317163 2.21014C0.611069 1.57944 1.0449 1.20221 1.60564 0.827799C1.92414 0.619124 2.26119 0.440242 2.61251 0.293424C2.64767 0.278307 2.68037 0.263893 2.70955 0.250885C2.88357 0.172486 3.14724 0.0540098 3.48123 0.180572C3.70412 0.264244 3.9031 0.435455 4.21458 0.743072C4.85337 1.37307 5.7263 2.77616 6.04833 3.46522C6.26454 3.92963 6.40763 4.2362 6.40798 4.58002C6.40798 4.98256 6.20548 5.29299 5.95974 5.62803C5.91369 5.69096 5.86798 5.75108 5.82369 5.80944C5.55615 6.161 5.49744 6.2626 5.53611 6.44401C5.61451 6.80858 6.19915 7.89385 7.15997 8.85256C8.12079 9.81127 9.17478 10.359 9.54076 10.4371C9.7299 10.4775 9.83361 10.4163 10.1964 10.1393C10.2485 10.0996 10.3019 10.0584 10.3578 10.0173C10.7326 9.7385 11.0286 9.54128 11.4216 9.54128H11.4237C11.7658 9.54128 12.0586 9.68963 12.5438 9.93432C13.1766 10.2535 14.6219 11.1152 15.2558 11.7547C15.5641 12.0655 15.736 12.2638 15.82 12.4863C15.9466 12.8214 15.8274 13.084 15.7497 13.2598C15.7367 13.2889 15.7223 13.3209 15.7072 13.3564C15.5592 13.7071 15.3792 14.0435 15.1696 14.3612C14.7959 14.9202 14.4173 15.353 13.7852 15.6472C13.4606 15.8007 13.1053 15.8785 12.7463 15.8747Z" fill="white"/>
</svg>
