<svg width="19" height="11" viewBox="0 0 19 11" fill="none" xmlns="http://www.w3.org/2000/svg">
<path d="M18.5071 9.29405C18.4914 10.0688 17.8706 10.3303 17.269 9.90151C16.1471 9.11629 15.033 8.32025 13.9145 7.53071C13.9173 7.89611 13.9124 8.75676 13.9142 9.13113C13.9139 9.82546 13.5689 10.1634 12.8601 10.1637L6.82067 10.1643C5.79741 10.1646 4.77447 10.1649 3.75121 10.1637C1.81691 10.1615 0.516976 8.89433 0.516357 7.01011V1.07306C0.516357 0.368835 0.850539 0.0405273 1.56744 0.0405273C4.02542 0.0872077 8.32001 0.0457822 10.7298 0.0414543C12.4378 0.0433091 13.6734 1.10552 13.8799 2.67534C15.0101 1.87775 16.1357 1.07368 17.269 0.280111C17.7918 -0.0992052 18.4799 0.0225975 18.5071 0.887884C18.5146 3.604 18.5235 6.57268 18.5071 9.29405Z" fill="white"/>
</svg>
